<svg xmlns="http://www.w3.org/2000/svg" viewBox="0 0 400 270" role="img" aria-labelledby="title desc">
  <title id="title">Corrovera Security</title>
  <desc id="desc">Stacked Corrovera Security color mark and wordmark for dark backgrounds.</desc>
  <g transform="translate(136 8)">
    <path d="M10 10h15l47 47-15 15z" fill="#2CE0C2"/>
    <path d="M103 10h15L71 57 56 72z" fill="#5BD7DB"/>
    <path d="M10 118h15l47-47-15-15z" fill="#3155C6"/>
    <path d="M103 118h15L71 71 56 56z" fill="#5870FF"/>
    <path d="M64 40 88 64 64 88 40 64z" fill="#D9E4E8" stroke="#F6F4EE" stroke-width="2"/>
    <path d="m64 47 17 17-17 17-17-17z" fill="#F6F4EE" stroke="#FFFFFF" stroke-width="1.5"/>
    <path d="M64 47v34M47 64h34" fill="none" stroke="#9EB6C2" stroke-width="1.5"/>
    <circle cx="64" cy="64" r="3.5" fill="#08131E"/>
  </g>
  <g transform="translate(47 162)" fill="none" stroke="#F6F4EE" stroke-width="4" stroke-linecap="square" stroke-linejoin="miter">
    <path d="M27 6H12a8 8 0 0 0-8 8v20a8 8 0 0 0 8 8h15"/>
    <rect x="38" y="6" width="25" height="36" rx="8"/>
    <path d="M72 42V6h13a9 9 0 0 1 0 18H72m12 0 11 18"/>
    <path d="M106 42V6h13a9 9 0 0 1 0 18h-13m12 0 11 18"/>
    <rect x="140" y="6" width="25" height="36" rx="8"/>
    <path d="m174 6 12 36 12-36"/>
    <path d="M231 6h-23v36h23M208 24h19"/>
    <path d="M242 42V6h13a9 9 0 0 1 0 18h-13m12 0 11 18"/>
    <path d="m276 42 12-36 12 36m-20-13h16"/>
  </g>
  <text x="200" y="245" text-anchor="middle" fill="#D9E4E8" font-family="Inter, Helvetica Neue, Arial, sans-serif" font-size="15" font-weight="650" letter-spacing="7">SECURITY</text>
</svg>
